HIERARCHY
ROOT Hips
{
	OFFSET 0.000000 0.000000 0.000000
	CHANNELS 6 Xposition Yposition Zposition Xrotation Yrotation Zrotation
	JOINT LeftUpLeg_virtual
	{
		OFFSET 0.000000 0.000000 0.000000
		CHANNELS 3 Xrotation Yrotation Zrotation
		JOINT LeftUpLeg
		{
			OFFSET 15.427100 -6.655098 0.678600
			CHANNELS 3 Xrotation Yrotation Zrotation
			JOINT LeftLeg
			{
				OFFSET 4.081073 -39.591068 13.024000
				CHANNELS 3 Xrotation Yrotation Zrotation
				JOINT LeftFoot
				{
					OFFSET -4.081074 -37.707932 -15.979700
					CHANNELS 3 Xrotation Yrotation Zrotation
					JOINT LeftToeBase
					{
						OFFSET 5.346399 -15.068900 20.645000
						CHANNELS 3 Xrotation Yrotation Zrotation
						JOINT LeftToe_End
						{
							OFFSET 2.754700 0.931300 11.300900
							CHANNELS 3 Xrotation Yrotation Zrotation
							End Site
							{
								OFFSET 0 0 0
							}
						}
					}
				}
			}
		}
	}
	JOINT RightUpLeg_virtual
	{
		OFFSET 0.000000 0.000000 0.000000
		CHANNELS 3 Xrotation Yrotation Zrotation
		JOINT RightUpLeg
		{
			OFFSET -15.569500 -6.655098 0.678600
			CHANNELS 3 Xrotation Yrotation Zrotation
			JOINT RightLeg
			{
				OFFSET -4.081825 -39.591045 13.023800
				CHANNELS 3 Xrotation Yrotation Zrotation
				JOINT RightFoot
				{
					OFFSET 4.081824 -37.707954 -15.979600
					CHANNELS 3 Xrotation Yrotation Zrotation
					JOINT RightToeBase
					{
						OFFSET -5.346400 -15.068900 20.645000
						CHANNELS 3 Xrotation Yrotation Zrotation
						JOINT RightToe_End
						{
							OFFSET -2.754700 0.931300 11.300900
							CHANNELS 3 Xrotation Yrotation Zrotation
							End Site
							{
								OFFSET 0 0 0
							}
						}
					}
				}
			}
		}
	}
	JOINT Spine_virtual
	{
		OFFSET 0.000000 0.000000 0.000000
		CHANNELS 3 Xrotation Yrotation Zrotation
		JOINT Spine
		{
			OFFSET -0.279200 12.230698 -2.892100
			CHANNELS 3 Xrotation Yrotation Zrotation
			JOINT Spine1
			{
				OFFSET -0.232667 10.192268 -1.242267
				CHANNELS 3 Xrotation Yrotation Zrotation
				JOINT Spine1_split
				{
					OFFSET -0.232667 10.192268 -1.242267
					CHANNELS 3 Xrotation Yrotation Zrotation
					JOINT Spine2
					{
						OFFSET -0.232667 10.192268 -1.242267
						CHANNELS 3 Xrotation Yrotation Zrotation
						JOINT Neck_virtual
						{
							OFFSET 0.000000 0.000000 0.000000
							CHANNELS 3 Xrotation Yrotation Zrotation
							JOINT Neck
							{
								OFFSET -0.418800 17.814194 8.416900
								CHANNELS 3 Xrotation Yrotation Zrotation
								JOINT Head
								{
									OFFSET 0.000000 7.031097 3.806800
									CHANNELS 3 Xrotation Yrotation Zrotation
									JOINT HeadTop_End
									{
										OFFSET 0.000000 24.646606 12.978600
										CHANNELS 3 Xrotation Yrotation Zrotation
										End Site
										{
											OFFSET 0 0 0
										}
									}
								}
							}
						}
						JOINT LeftShoulder_virtual
						{
							OFFSET 0.000000 0.000000 0.000000
							CHANNELS 3 Xrotation Yrotation Zrotation
							JOINT LeftShoulder
							{
								OFFSET 8.476499 7.247704 -3.868750
								CHANNELS 3 Xrotation Yrotation Zrotation
								JOINT LeftShoulder_split
								{
									OFFSET 8.476499 7.247704 -3.868750
									CHANNELS 3 Xrotation Yrotation Zrotation
									JOINT LeftArm
									{
										OFFSET 9.308998 -2.777710 0.208600
										CHANNELS 3 Xrotation Yrotation Zrotation
										JOINT LeftForeArm
										{
											OFFSET 29.972298 0.000000 0.000000
											CHANNELS 3 Xrotation Yrotation Zrotation
											JOINT LeftHand
											{
												OFFSET 26.026505 0.000000 0.000000
												CHANNELS 3 Xrotation Yrotation Zrotation
												End Site
												{
													OFFSET 0 0 0
												}
											}
										}
									}
								}
							}
						}
						JOINT RightShoulder_virtual
						{
							OFFSET 0.000000 0.000000 0.000000
							CHANNELS 3 Xrotation Yrotation Zrotation
							JOINT RightShoulder
							{
								OFFSET -7.570500 7.247704 -3.868750
								CHANNELS 3 Xrotation Yrotation Zrotation
								JOINT RightShoulder_split
								{
									OFFSET -7.570500 7.247704 -3.868750
									CHANNELS 3 Xrotation Yrotation Zrotation
									JOINT RightArm
									{
										OFFSET -9.308998 -2.777710 0.208500
										CHANNELS 3 Xrotation Yrotation Zrotation
										JOINT RightForeArm
										{
											OFFSET -29.972300 0.000000 0.000000
											CHANNELS 3 Xrotation Yrotation Zrotation
											JOINT RightHand
											{
												OFFSET -26.026505 0.000000 0.000000
												CHANNELS 3 Xrotation Yrotation Zrotation
												End Site
												{
													OFFSET 0 0 0
												}
											}
										}
									}
								}
							}
						}
					}
				}
			}
		}
	}
}
MOTION
Frames: 9
Frame Time: 0.03333333
-8.551314 69.143417 15.982121 0.000000 0.000000 0.000000 8.132742 35.062353 -2.828769 -70.641047 -7.196879 -32.029810 69.822080 -42.118662 -4.832043 8.531014 9.948499 4.819999 3.875435 -0.551423 2.076027 0.000000 0.000000 0.000000 9.512792 37.600465 -3.855244 9.710918 -35.040353 -5.084086 57.560067 14.828199 -5.631166 -29.034721 -2.774546 2.524046 -42.557611 -4.111026 4.377920 0.000000 0.000000 0.000000 10.720756 42.771714 -5.509776 6.473780 12.673855 0.168232 3.125068 16.340123 0.062911 1.033034 1.816785 0.605121 0.000000 0.000000 0.000000 2.709885 15.397560 -0.403936 18.724077 -31.629879 3.888823 -22.976763 -36.370136 -1.504643 0.000000 0.000000 0.000000 2.648856 16.331380 -0.837833 2.127307 -4.642613 -6.148369 -3.781172 -8.771823 -2.441969 -33.235584 9.949174 -25.710867 50.461345 -3.127435 17.619235 0.000000 0.000000 0.000000 3.837671 16.355089 -1.045879 0.516802 8.045217 -16.332528 -4.980815 4.407087 2.953092 -18.596034 -20.139065 3.888840 -33.331282 29.513299 9.879432 0.000000 0.000000 0.000000 
-8.001265 69.359528 15.869843 0.000000 0.000000 0.000000 8.661768 33.258547 -2.931693 -70.810798 -6.761746 -30.438403 70.483570 -41.239384 -4.121005 8.560640 9.301907 4.480207 4.132755 -0.460369 2.197880 0.000000 0.000000 0.000000 10.318199 36.074074 -3.911450 9.189966 -33.552505 -6.069714 57.041232 14.588376 -5.309185 -29.291543 -2.752626 2.168631 -41.589869 -3.942719 4.449575 0.000000 0.000000 0.000000 11.161025 41.566861 -5.982865 6.514335 12.367842 0.251147 3.325125 15.877874 -0.206319 1.018327 1.473794 0.710167 0.000000 0.000000 0.000000 2.795859 14.932672 -0.672543 17.651454 -31.253576 3.078286 -22.694154 -37.466668 -0.531106 0.000000 0.000000 0.000000 2.862844 15.839521 -1.228162 2.050106 -4.864955 -6.063226 -4.714825 -8.627868 -1.715304 -27.338701 13.541229 -25.018232 50.511831 -3.059927 19.055278 0.000000 0.000000 0.000000 3.924909 15.972694 -1.218840 0.310276 6.985143 -16.647070 -5.492799 3.490562 2.388477 -23.169941 -18.265203 4.844440 -32.525958 30.908177 12.335402 0.000000 0.000000 0.000000 
-7.351688 69.705772 15.762608 0.000000 0.000000 0.000000 8.980968 30.332583 -2.977176 -70.192666 -6.395340 -28.203043 70.472539 -39.800216 -3.725853 7.806741 8.712070 4.474132 3.894667 -0.352600 2.299547 0.000000 0.000000 0.000000 10.733910 33.446043 -3.827713 8.840870 -31.445778 -7.409565 55.896571 14.810246 -4.929551 -28.744325 -2.714696 2.558988 -41.416799 -3.802704 4.526561 0.000000 0.000000 0.000000 11.074159 39.330442 -6.142705 6.761393 11.909792 0.412621 3.574764 15.394498 -0.407450 0.636966 1.585012 0.583748 0.000000 0.000000 0.000000 2.993926 14.484265 -0.852171 15.910736 -30.718964 2.106694 -22.431835 -38.196375 0.489573 0.000000 0.000000 0.000000 3.055325 15.412901 -1.491332 1.826592 -4.588020 -5.592066 -5.591029 -8.876354 -1.140774 -20.726935 17.494290 -24.868422 50.515287 -2.083323 20.159792 0.000000 0.000000 0.000000 3.997917 15.610290 -1.321941 -0.203509 5.415527 -17.620816 -4.929396 2.945045 1.775147 -30.398758 -14.177757 6.733817 -30.775398 31.219326 13.810477 0.000000 0.000000 0.000000 
-6.570604 70.162529 15.637493 0.000000 0.000000 0.000000 9.041946 26.484631 -2.841400 -68.794847 -6.064430 -25.474601 69.780710 -37.954774 -3.671239 6.457914 7.999037 4.722229 2.835953 -0.274542 2.483194 0.000000 0.000000 0.000000 10.746367 29.831760 -3.558724 8.573288 -28.894931 -9.174419 54.436594 15.515147 -4.559134 -27.657143 -2.590544 3.935634 -42.071947 -3.741915 4.600558 0.000000 0.000000 0.000000 10.498697 35.871662 -5.854830 7.223379 11.345679 0.596796 3.842969 14.914200 -0.531246 0.436931 1.851185 0.523106 0.000000 0.000000 0.000000 3.183739 14.057453 -0.960839 13.834481 -29.827108 1.227399 -22.271252 -38.132885 1.347767 0.000000 0.000000 0.000000 3.187225 15.024519 -1.639111 1.489586 -3.765213 -4.838708 -6.421778 -9.254708 -0.957993 -13.401421 21.579392 -25.700410 50.330175 -0.408057 21.050293 0.000000 0.000000 0.000000 4.119648 15.307658 -1.383179 -0.892168 3.676307 -18.683573 -3.586998 2.846249 1.314769 -38.636201 -7.916388 9.989859 -27.720114 29.850065 13.703210 0.000000 0.000000 0.000000 
-5.660122 70.756493 15.344776 0.000000 0.000000 0.000000 8.914071 21.714742 -2.479771 -66.755189 -5.728633 -22.453960 68.713561 -35.830267 -3.761660 4.698587 7.008837 5.317441 1.479745 -0.246301 2.746717 0.000000 0.000000 0.000000 10.378749 25.367428 -3.056014 8.409746 -26.164185 -11.298266 53.006137 16.265667 -4.200779 -26.782516 -2.448557 5.502800 -42.413528 -3.756287 4.743206 0.000000 0.000000 0.000000 9.609625 31.286365 -5.161872 7.888625 10.752616 0.753737 4.057360 14.413641 -0.572391 0.285680 2.306229 0.681683 0.000000 0.000000 0.000000 3.252063 13.616546 -1.000150 11.789415 -28.427930 0.661397 -22.250383 -36.917043 1.789143 0.000000 0.000000 0.000000 3.203443 14.627176 -1.689017 1.088431 -2.500413 -4.058786 -6.879785 -9.387140 -1.076334 -5.212342 25.479411 -28.042916 49.875865 1.322706 21.977522 0.000000 0.000000 0.000000 4.254698 14.998033 -1.412635 -1.593856 2.014723 -19.074654 -2.222958 2.797149 1.157037 -46.454521 -0.136805 14.929434 -23.738075 27.566937 12.318476 0.000000 0.000000 0.000000 
-4.654984 71.441605 14.883568 0.000000 0.000000 0.000000 8.691407 16.187687 -1.908080 -64.258802 -5.452608 -19.263784 67.420606 -33.497290 -3.930445 2.660441 5.718012 6.118633 0.519871 -0.235316 3.057975 0.000000 0.000000 0.000000 9.609607 20.322613 -2.324602 8.080927 -23.472655 -13.826270 51.715071 16.747721 -3.825179 -26.600754 -2.421890 6.718802 -41.350430 -3.779688 4.977381 0.000000 0.000000 0.000000 8.568509 25.636826 -4.174676 8.674234 10.169966 0.872153 4.157854 13.846614 -0.557481 0.284658 2.943447 0.867396 0.000000 0.000000 0.000000 3.146831 13.106244 -1.009095 10.077331 -26.409874 0.446405 -22.364406 -34.443705 1.684047 0.000000 0.000000 0.000000 3.157929 14.118001 -1.693063 0.668342 -1.051572 -3.357226 -7.123901 -8.977934 -1.560237 3.698617 29.239142 -32.076457 49.320379 2.431101 23.209838 0.000000 0.000000 0.000000 4.385045 14.592131 -1.407377 -2.157949 0.563651 -18.324209 -1.339713 2.386763 1.675578 -52.912304 8.044316 21.393114 -19.668527 26.326493 10.284287 0.000000 0.000000 0.000000 
-3.589975 72.158897 14.306934 0.000000 0.000000 0.000000 8.418422 10.051204 -1.117250 -61.590439 -5.378718 -16.005268 65.719957 -30.974484 -4.203230 0.439479 4.243272 6.636656 0.109257 -0.158715 3.289262 0.000000 0.000000 0.000000 8.649222 14.731466 -1.419411 7.146528 -20.849421 -16.941989 50.781582 16.857330 -3.453247 -26.668354 -2.590742 7.882827 -39.289413 -3.735541 5.187348 0.000000 0.000000 0.000000 7.429335 19.145196 -3.005695 9.505485 9.621744 0.944266 4.158969 13.180031 -0.543382 0.397135 2.961796 0.985187 0.000000 0.000000 0.000000 2.928476 12.499257 -1.014292 8.891225 -23.671586 0.565257 -22.473192 -30.641502 1.070325 0.000000 0.000000 0.000000 3.103583 13.426170 -1.703794 0.282897 0.259478 -2.796651 -7.431931 -7.932413 -2.315505 12.853592 32.737045 -37.744305 49.099201 2.034815 24.974527 0.000000 0.000000 0.000000 4.456412 14.043907 -1.389282 -2.435416 -0.464060 -16.100882 -1.013838 1.793627 2.423544 -58.019821 15.878962 28.946004 -15.844372 27.823121 7.797642 0.000000 0.000000 0.000000 
-2.527827 72.915047 13.657318 0.000000 0.000000 0.000000 8.163111 3.434167 -0.150563 -58.848678 -5.541106 -12.814541 63.639092 -28.253033 -4.470765 -1.814514 2.771480 6.492466 0.015479 0.005051 3.388325 0.000000 0.000000 0.000000 7.641821 8.581983 -0.367691 5.307896 -18.302250 -20.690458 50.276135 16.701947 -3.170550 -25.927086 -2.961367 9.725647 -37.113216 -3.577079 5.176992 0.000000 0.000000 0.000000 6.298047 12.060224 -1.777712 10.300386 9.168023 0.974828 4.110904 12.464168 -0.589291 0.408008 2.404951 0.858670 0.000000 0.000000 0.000000 2.682757 11.855789 -1.042657 8.110562 -20.380849 0.803747 -22.386507 -25.756454 0.098507 0.000000 0.000000 0.000000 3.098526 12.615844 -1.756019 -0.056923 1.292347 -2.439735 -7.570824 -6.411852 -3.084914 21.107209 35.805604 -44.660404 49.647972 -0.486236 27.503415 0.000000 0.000000 0.000000 4.448472 13.362038 -1.383086 -2.399725 -0.968280 -12.645109 -1.023270 1.169450 3.041322 -61.859842 23.028671 36.931577 -12.007297 32.100250 4.530776 0.000000 0.000000 0.000000 
-1.506895 73.668854 13.087124 0.000000 0.000000 0.000000 7.926210 -3.424593 0.937523 -56.080419 -5.827970 -9.640889 61.252522 -25.306783 -4.724415 -3.801546 1.510405 5.461884 -0.068456 0.236460 3.313226 0.000000 0.000000 0.000000 6.741938 1.886809 0.736515 2.528497 -15.766933 -25.008075 49.990547 16.540109 -2.981693 -23.864742 -3.370531 12.902191 -34.964667 -3.254382 4.848380 0.000000 0.000000 0.000000 5.250372 4.610575 -0.592539 10.987018 8.826880 0.975916 4.079999 11.772798 -0.721654 0.543102 1.438630 0.478935 0.000000 0.000000 0.000000 2.516742 11.254880 -1.129716 7.564301 -16.688939 0.975751 -21.911947 -20.276315 -1.021152 0.000000 0.000000 0.000000 3.208299 11.774350 -1.863269 -0.380566 2.054929 -2.369063 -7.891260 -4.876600 -3.781632 27.138374 38.563562 -51.986195 51.528136 -5.659700 31.211769 0.000000 0.000000 0.000000 4.423596 12.649336 -1.399531 -2.090765 -0.828212 -8.418122 -1.185901 0.783632 3.480858 -64.386008 29.380796 44.481505 -7.548871 37.537801 -0.076959 0.000000 0.000000 0.000000 
